M48
;GenerationSoftware,Autodesk,EAGLE,9.3.2*%
;CreationDate,2019-05-03T18:18:39Z*%
FMAT,2
ICI,OFF
METRIC,TZ,000.000
T2C0.813
T1C0.914
%
G90
M71
T1
X9373Y31979
X11938Y32004
X14478Y32004
X6833Y31979
T2
X1600Y23876
X1600Y21336
X1600Y16256
X1600Y18796
X1600Y8636
X1600Y6096
X1600Y3556
X1600Y1016
X16840Y1016
X16840Y3556
X16840Y6096
X16840Y8636
X16840Y11176
X16840Y13716
X16840Y16256
X16840Y18796
X16840Y21336
X16840Y23876
X16840Y26416
X16840Y28956
X4724Y28956
X4724Y26416
X4724Y13716
X4724Y11176
X4724Y23876
X4724Y21336
X4724Y16256
X4724Y18796
X4724Y8636
X4724Y6096
X4724Y3556
X4724Y1016
X19964Y1016
X19964Y3556
X19964Y6096
X1600Y28956
X19964Y11176
X19964Y13716
X19964Y16256
X19964Y18796
X19964Y21336
X19964Y8636
X19964Y26416
X19964Y28956
X1600Y26416
X1600Y13716
X1600Y11176
X19964Y23876
M30