G04 EAGLE Gerber RS-274X export*
G75*
%MOMM*%
%FSLAX34Y34*%
%LPD*%
%INSilkscreen Top*%
%IPPOS*%
%AMOC8*
5,1,8,0,0,1.08239X$1,22.5*%
G01*
%ADD10C,0.101600*%
%ADD11C,0.076200*%
%ADD12C,0.152400*%
%ADD13R,0.609600X0.609600*%
%ADD14C,0.177800*%
%ADD15C,0.127000*%
%ADD16R,1.905000X1.016000*%
%ADD17R,0.381000X1.778000*%
%ADD18R,0.254000X1.270000*%
%ADD19R,0.254000X0.762000*%
%ADD20R,0.254000X0.254000*%
%ADD21R,0.127000X0.254000*%
%ADD22R,0.127000X0.127000*%


D10*
X75692Y74344D02*
X75692Y66548D01*
X67896Y74344D01*
X65947Y74344D01*
X63998Y72395D01*
X63998Y68497D01*
X65947Y66548D01*
X63998Y78242D02*
X63998Y86038D01*
X63998Y78242D02*
X69845Y78242D01*
X67896Y82140D01*
X67896Y84089D01*
X69845Y86038D01*
X73743Y86038D01*
X75692Y84089D01*
X75692Y80191D01*
X73743Y78242D01*
X65947Y89936D02*
X63998Y91885D01*
X63998Y95783D01*
X65947Y97732D01*
X67896Y97732D01*
X69845Y95783D01*
X69845Y93834D01*
X69845Y95783D02*
X71794Y97732D01*
X73743Y97732D01*
X75692Y95783D01*
X75692Y91885D01*
X73743Y89936D01*
X75692Y101630D02*
X75692Y109426D01*
X75692Y101630D02*
X67896Y109426D01*
X65947Y109426D01*
X63998Y107477D01*
X63998Y103579D01*
X65947Y101630D01*
X69845Y125018D02*
X63998Y132814D01*
X69845Y125018D02*
X75692Y132814D01*
X71794Y136712D02*
X71794Y144508D01*
X67896Y144508D02*
X67896Y136712D01*
X71794Y148406D02*
X71794Y156202D01*
X67896Y156202D02*
X67896Y148406D01*
X71794Y160100D02*
X71794Y167896D01*
X67896Y167896D02*
X67896Y160100D01*
X63998Y171794D02*
X69845Y179590D01*
X75692Y171794D01*
X75692Y195182D02*
X75692Y202978D01*
X75692Y195182D02*
X67896Y202978D01*
X65947Y202978D01*
X63998Y201029D01*
X63998Y197131D01*
X65947Y195182D01*
X63998Y206876D02*
X63998Y214672D01*
X65947Y214672D01*
X73743Y206876D01*
X75692Y206876D01*
X65947Y218570D02*
X63998Y220519D01*
X63998Y224417D01*
X65947Y226366D01*
X67896Y226366D01*
X69845Y224417D01*
X69845Y222468D01*
X69845Y224417D02*
X71794Y226366D01*
X73743Y226366D01*
X75692Y224417D01*
X75692Y220519D01*
X73743Y218570D01*
X75692Y230264D02*
X75692Y238060D01*
X75692Y230264D02*
X67896Y238060D01*
X65947Y238060D01*
X63998Y236111D01*
X63998Y232213D01*
X65947Y230264D01*
D11*
X81147Y81496D02*
X81147Y76581D01*
X88519Y76581D01*
X88519Y81496D01*
X84833Y79038D02*
X84833Y76581D01*
X88519Y84065D02*
X81147Y84065D01*
X81147Y87751D01*
X82375Y88980D01*
X84833Y88980D01*
X86062Y87751D01*
X86062Y84065D01*
X88519Y91549D02*
X81147Y91549D01*
X81147Y95235D01*
X82375Y96464D01*
X84833Y96464D01*
X86062Y95235D01*
X86062Y91549D01*
X86062Y94007D02*
X88519Y96464D01*
X81147Y100262D02*
X81147Y102720D01*
X81147Y100262D02*
X82375Y99033D01*
X87290Y99033D01*
X88519Y100262D01*
X88519Y102720D01*
X87290Y103948D01*
X82375Y103948D01*
X81147Y102720D01*
X81147Y106518D02*
X88519Y106518D01*
X83604Y108975D02*
X81147Y106518D01*
X83604Y108975D02*
X81147Y111432D01*
X88519Y111432D01*
X81147Y125172D02*
X82375Y126401D01*
X81147Y125172D02*
X81147Y122715D01*
X82375Y121486D01*
X83604Y121486D01*
X84833Y122715D01*
X84833Y125172D01*
X86062Y126401D01*
X87290Y126401D01*
X88519Y125172D01*
X88519Y122715D01*
X87290Y121486D01*
X88519Y130199D02*
X88519Y132656D01*
X87290Y133885D01*
X84833Y133885D01*
X83604Y132656D01*
X83604Y130199D01*
X84833Y128970D01*
X87290Y128970D01*
X88519Y130199D01*
X83604Y137683D02*
X83604Y141369D01*
X83604Y137683D02*
X84833Y136454D01*
X87290Y136454D01*
X88519Y137683D01*
X88519Y141369D01*
X88519Y143938D02*
X81147Y143938D01*
X86062Y143938D02*
X88519Y147625D01*
X86062Y143938D02*
X83604Y147625D01*
X88519Y151404D02*
X88519Y153861D01*
X88519Y151404D02*
X87290Y150175D01*
X84833Y150175D01*
X83604Y151404D01*
X83604Y153861D01*
X84833Y155090D01*
X86062Y155090D01*
X86062Y150175D01*
X87290Y158888D02*
X82375Y158888D01*
X87290Y158888D02*
X88519Y160117D01*
X83604Y160117D02*
X83604Y157659D01*
X81147Y173819D02*
X82375Y175048D01*
X81147Y173819D02*
X81147Y171362D01*
X82375Y170133D01*
X87290Y170133D01*
X88519Y171362D01*
X88519Y173819D01*
X87290Y175048D01*
X88519Y178846D02*
X88519Y181303D01*
X87290Y182532D01*
X84833Y182532D01*
X83604Y181303D01*
X83604Y178846D01*
X84833Y177617D01*
X87290Y177617D01*
X88519Y178846D01*
X88519Y185101D02*
X83604Y185101D01*
X83604Y188787D01*
X84833Y190016D01*
X88519Y190016D01*
X88519Y195043D02*
X83604Y192585D01*
X83604Y197500D02*
X88519Y195043D01*
X88519Y201298D02*
X88519Y203756D01*
X88519Y201298D02*
X87290Y200070D01*
X84833Y200070D01*
X83604Y201298D01*
X83604Y203756D01*
X84833Y204984D01*
X86062Y204984D01*
X86062Y200070D01*
X88519Y207554D02*
X83604Y207554D01*
X83604Y210011D02*
X86062Y207554D01*
X83604Y210011D02*
X83604Y211240D01*
X82375Y215019D02*
X87290Y215019D01*
X88519Y216248D01*
X83604Y216248D02*
X83604Y213791D01*
X88519Y220009D02*
X88519Y222466D01*
X88519Y220009D02*
X87290Y218780D01*
X84833Y218780D01*
X83604Y220009D01*
X83604Y222466D01*
X84833Y223695D01*
X86062Y223695D01*
X86062Y218780D01*
X88519Y226264D02*
X83604Y226264D01*
X86062Y226264D02*
X83604Y228722D01*
X83604Y229950D01*
X93551Y84036D02*
X92323Y82807D01*
X92323Y80350D01*
X93551Y79121D01*
X98466Y79121D01*
X99695Y80350D01*
X99695Y82807D01*
X98466Y84036D01*
X99695Y87834D02*
X99695Y90291D01*
X98466Y91520D01*
X96009Y91520D01*
X94780Y90291D01*
X94780Y87834D01*
X96009Y86605D01*
X98466Y86605D01*
X99695Y87834D01*
X102152Y94089D02*
X94780Y94089D01*
X94780Y97775D01*
X96009Y99004D01*
X98466Y99004D01*
X99695Y97775D01*
X99695Y94089D01*
X99695Y101573D02*
X94780Y101573D01*
X97238Y101573D02*
X94780Y104031D01*
X94780Y105260D01*
X98466Y107810D02*
X99695Y107810D01*
X98466Y107810D02*
X98466Y109039D01*
X99695Y109039D01*
X99695Y107810D01*
X97238Y119036D02*
X99695Y121494D01*
X97238Y119036D02*
X94780Y119036D01*
X92323Y121494D01*
X92323Y127712D02*
X93551Y128941D01*
X92323Y127712D02*
X92323Y125255D01*
X93551Y124026D01*
X98466Y124026D01*
X99695Y125255D01*
X99695Y127712D01*
X98466Y128941D01*
X99695Y131510D02*
X97238Y133967D01*
X94780Y133967D01*
X92323Y131510D01*
X93551Y143984D02*
X98466Y143984D01*
X93551Y143984D02*
X92323Y145212D01*
X92323Y147670D01*
X93551Y148899D01*
X98466Y148899D01*
X99695Y147670D01*
X99695Y145212D01*
X98466Y143984D01*
X93551Y148899D01*
X92323Y155154D02*
X99695Y155154D01*
X96009Y151468D02*
X92323Y155154D01*
X96009Y156383D02*
X96009Y151468D01*
X99695Y166436D02*
X92323Y166436D01*
X94780Y168894D01*
X92323Y171351D01*
X99695Y171351D01*
X94780Y175149D02*
X94780Y177606D01*
X96009Y178835D01*
X99695Y178835D01*
X99695Y175149D01*
X98466Y173920D01*
X97238Y175149D01*
X97238Y178835D01*
X98466Y181404D02*
X94780Y181404D01*
X98466Y181404D02*
X99695Y182633D01*
X99695Y186319D01*
X100924Y186319D02*
X94780Y186319D01*
X100924Y186319D02*
X102152Y185091D01*
X102152Y183862D01*
X99695Y196373D02*
X99695Y201288D01*
X99695Y196373D02*
X94780Y201288D01*
X93551Y201288D01*
X92323Y200059D01*
X92323Y197601D01*
X93551Y196373D01*
X93551Y203857D02*
X98466Y203857D01*
X93551Y203857D02*
X92323Y205086D01*
X92323Y207543D01*
X93551Y208772D01*
X98466Y208772D01*
X99695Y207543D01*
X99695Y205086D01*
X98466Y203857D01*
X93551Y208772D01*
X94780Y211341D02*
X92323Y213798D01*
X99695Y213798D01*
X99695Y211341D02*
X99695Y216256D01*
X98466Y218825D02*
X93551Y218825D01*
X92323Y220054D01*
X92323Y222511D01*
X93551Y223740D01*
X98466Y223740D01*
X99695Y222511D01*
X99695Y220054D01*
X98466Y218825D01*
X93551Y223740D01*
X113151Y74041D02*
X120523Y74041D01*
X116837Y74041D02*
X115608Y75270D01*
X115608Y77727D01*
X116837Y78956D01*
X120523Y78956D01*
X119294Y82754D02*
X114379Y82754D01*
X119294Y82754D02*
X120523Y83983D01*
X115608Y83983D02*
X115608Y81525D01*
X114379Y87743D02*
X119294Y87743D01*
X120523Y88972D01*
X115608Y88972D02*
X115608Y86515D01*
X115608Y91504D02*
X122980Y91504D01*
X115608Y91504D02*
X115608Y95190D01*
X116837Y96419D01*
X119294Y96419D01*
X120523Y95190D01*
X120523Y91504D01*
X115608Y98988D02*
X115608Y100217D01*
X116837Y100217D01*
X116837Y98988D01*
X115608Y98988D01*
X119294Y98988D02*
X119294Y100217D01*
X120523Y100217D01*
X120523Y98988D01*
X119294Y98988D01*
X120523Y102730D02*
X113151Y107645D01*
X113151Y115129D02*
X120523Y110214D01*
X119294Y117699D02*
X115608Y117699D01*
X119294Y117699D02*
X120523Y118927D01*
X119294Y120156D01*
X120523Y121385D01*
X119294Y122613D01*
X115608Y122613D01*
X115608Y125183D02*
X119294Y125183D01*
X120523Y126411D01*
X119294Y127640D01*
X120523Y128869D01*
X119294Y130098D01*
X115608Y130098D01*
X115608Y132667D02*
X119294Y132667D01*
X120523Y133896D01*
X119294Y135124D01*
X120523Y136353D01*
X119294Y137582D01*
X115608Y137582D01*
X119294Y140151D02*
X120523Y140151D01*
X119294Y140151D02*
X119294Y141380D01*
X120523Y141380D01*
X120523Y140151D01*
X113151Y147579D02*
X114379Y148808D01*
X113151Y147579D02*
X113151Y145122D01*
X114379Y143893D01*
X119294Y143893D01*
X120523Y145122D01*
X120523Y147579D01*
X119294Y148808D01*
X116837Y148808D01*
X116837Y146351D01*
X120523Y151377D02*
X120523Y153835D01*
X120523Y152606D02*
X113151Y152606D01*
X113151Y151377D02*
X113151Y153835D01*
X113151Y156367D02*
X120523Y156367D01*
X115608Y158824D02*
X113151Y156367D01*
X115608Y158824D02*
X113151Y161282D01*
X120523Y161282D01*
X113151Y163851D02*
X113151Y168766D01*
X113151Y163851D02*
X120523Y163851D01*
X120523Y168766D01*
X116837Y166308D02*
X116837Y163851D01*
X115608Y172564D02*
X115608Y176250D01*
X115608Y172564D02*
X116837Y171335D01*
X119294Y171335D01*
X120523Y172564D01*
X120523Y176250D01*
X120523Y178819D02*
X113151Y178819D01*
X115608Y180048D02*
X116837Y178819D01*
X115608Y180048D02*
X115608Y182505D01*
X116837Y183734D01*
X120523Y183734D01*
X115608Y186303D02*
X115608Y187532D01*
X120523Y187532D01*
X120523Y186303D02*
X120523Y188761D01*
X113151Y187532D02*
X111922Y187532D01*
X115608Y191293D02*
X122980Y191293D01*
X115608Y191293D02*
X115608Y194979D01*
X116837Y196208D01*
X119294Y196208D01*
X120523Y194979D01*
X120523Y191293D01*
X120523Y198777D02*
X119294Y198777D01*
X119294Y200006D01*
X120523Y200006D01*
X120523Y198777D01*
X115608Y203748D02*
X115608Y207434D01*
X115608Y203748D02*
X116837Y202519D01*
X119294Y202519D01*
X120523Y203748D01*
X120523Y207434D01*
X120523Y211232D02*
X120523Y213689D01*
X119294Y214918D01*
X116837Y214918D01*
X115608Y213689D01*
X115608Y211232D01*
X116837Y210003D01*
X119294Y210003D01*
X120523Y211232D01*
X120523Y217487D02*
X115608Y217487D01*
X115608Y218716D01*
X116837Y219945D01*
X120523Y219945D01*
X116837Y219945D02*
X115608Y221173D01*
X116837Y222402D01*
X120523Y222402D01*
X120523Y224971D02*
X113151Y229886D01*
X110109Y73279D02*
X102737Y73279D01*
X102737Y76965D01*
X103965Y78194D01*
X105194Y78194D01*
X106423Y76965D01*
X107652Y78194D01*
X108880Y78194D01*
X110109Y76965D01*
X110109Y73279D01*
X106423Y73279D02*
X106423Y76965D01*
X105194Y80763D02*
X108880Y80763D01*
X110109Y81992D01*
X110109Y85678D01*
X111338Y85678D02*
X105194Y85678D01*
X111338Y85678D02*
X112566Y84449D01*
X112566Y83221D01*
X105194Y88247D02*
X105194Y89476D01*
X106423Y89476D01*
X106423Y88247D01*
X105194Y88247D01*
X108880Y88247D02*
X108880Y89476D01*
X110109Y89476D01*
X110109Y88247D01*
X108880Y88247D01*
X108880Y99474D02*
X110109Y100702D01*
X110109Y101931D01*
X108880Y103160D01*
X102737Y103160D01*
X102737Y104388D02*
X102737Y101931D01*
X108880Y106958D02*
X110109Y106958D01*
X108880Y106958D02*
X108880Y108186D01*
X110109Y108186D01*
X110109Y106958D01*
X102737Y110700D02*
X102737Y115615D01*
X102737Y110700D02*
X110109Y110700D01*
X110109Y115615D01*
X106423Y113157D02*
X106423Y110700D01*
X108880Y118184D02*
X110109Y118184D01*
X108880Y118184D02*
X108880Y119413D01*
X110109Y119413D01*
X110109Y118184D01*
X105194Y130639D02*
X105194Y133096D01*
X106423Y134325D01*
X110109Y134325D01*
X110109Y130639D01*
X108880Y129410D01*
X107652Y130639D01*
X107652Y134325D01*
X110109Y136894D02*
X105194Y136894D01*
X105194Y140580D01*
X106423Y141809D01*
X110109Y141809D01*
X110109Y149293D02*
X102737Y149293D01*
X110109Y149293D02*
X110109Y145607D01*
X108880Y144378D01*
X106423Y144378D01*
X105194Y145607D01*
X105194Y149293D01*
X108880Y159347D02*
X110109Y160575D01*
X110109Y161804D01*
X108880Y163033D01*
X102737Y163033D01*
X102737Y161804D02*
X102737Y164262D01*
X108880Y166831D02*
X110109Y166831D01*
X108880Y166831D02*
X108880Y168060D01*
X110109Y168060D01*
X110109Y166831D01*
X110109Y170573D02*
X102737Y170573D01*
X102737Y174259D01*
X103965Y175488D01*
X106423Y175488D01*
X107652Y174259D01*
X107652Y170573D01*
X107652Y173030D02*
X110109Y175488D01*
X110109Y178057D02*
X108880Y178057D01*
X108880Y179286D01*
X110109Y179286D01*
X110109Y178057D01*
X110109Y191741D02*
X102737Y191741D01*
X102737Y194198D02*
X102737Y189283D01*
X105194Y196768D02*
X108880Y196768D01*
X110109Y197996D01*
X110109Y201682D01*
X105194Y201682D01*
X105194Y204252D02*
X110109Y204252D01*
X107652Y204252D02*
X105194Y206709D01*
X105194Y207938D01*
X105194Y210488D02*
X110109Y210488D01*
X105194Y210488D02*
X105194Y214175D01*
X106423Y215403D01*
X110109Y215403D01*
X110109Y219201D02*
X110109Y221659D01*
X110109Y219201D02*
X108880Y217973D01*
X106423Y217973D01*
X105194Y219201D01*
X105194Y221659D01*
X106423Y222887D01*
X107652Y222887D01*
X107652Y217973D01*
X110109Y225457D02*
X105194Y225457D01*
X105194Y227914D02*
X107652Y225457D01*
X105194Y227914D02*
X105194Y229143D01*
X126401Y93012D02*
X124833Y91444D01*
X124833Y88309D01*
X126401Y86741D01*
X132671Y86741D01*
X134239Y88309D01*
X134239Y91444D01*
X132671Y93012D01*
X129536Y93012D01*
X129536Y89876D01*
X124833Y100799D02*
X126401Y102367D01*
X124833Y100799D02*
X124833Y97664D01*
X126401Y96096D01*
X132671Y96096D01*
X134239Y97664D01*
X134239Y100799D01*
X132671Y102367D01*
X124833Y110154D02*
X126401Y111722D01*
X124833Y110154D02*
X124833Y107019D01*
X126401Y105451D01*
X132671Y105451D01*
X134239Y107019D01*
X134239Y110154D01*
X132671Y111722D01*
X129536Y114807D02*
X129536Y121077D01*
X124833Y124162D02*
X124833Y130432D01*
X124833Y124162D02*
X134239Y124162D01*
X134239Y130432D01*
X129536Y127297D02*
X129536Y124162D01*
X124833Y138220D02*
X126401Y139788D01*
X124833Y138220D02*
X124833Y135085D01*
X126401Y133517D01*
X132671Y133517D01*
X134239Y135085D01*
X134239Y138220D01*
X132671Y139788D01*
X124833Y147575D02*
X126401Y149143D01*
X124833Y147575D02*
X124833Y144440D01*
X126401Y142872D01*
X127968Y142872D01*
X129536Y144440D01*
X129536Y147575D01*
X131104Y149143D01*
X132671Y149143D01*
X134239Y147575D01*
X134239Y144440D01*
X132671Y142872D01*
X129536Y152227D02*
X129536Y158498D01*
X132671Y161583D02*
X126401Y161583D01*
X124833Y163150D01*
X124833Y166286D01*
X126401Y167853D01*
X132671Y167853D01*
X134239Y166286D01*
X134239Y163150D01*
X132671Y161583D01*
X126401Y167853D01*
X126401Y170938D02*
X132671Y170938D01*
X126401Y170938D02*
X124833Y172505D01*
X124833Y175641D01*
X126401Y177208D01*
X132671Y177208D01*
X134239Y175641D01*
X134239Y172505D01*
X132671Y170938D01*
X126401Y177208D01*
X126401Y180293D02*
X132671Y180293D01*
X126401Y180293D02*
X124833Y181861D01*
X124833Y184996D01*
X126401Y186564D01*
X132671Y186564D01*
X134239Y184996D01*
X134239Y181861D01*
X132671Y180293D01*
X126401Y186564D01*
X127968Y189648D02*
X124833Y192783D01*
X134239Y192783D01*
X134239Y189648D02*
X134239Y195919D01*
X134239Y199003D02*
X132671Y199003D01*
X132671Y200571D01*
X134239Y200571D01*
X134239Y199003D01*
X127968Y203681D02*
X124833Y206816D01*
X134239Y206816D01*
X134239Y203681D02*
X134239Y209952D01*
D12*
X21082Y279400D02*
X21329Y279403D01*
X21577Y279412D01*
X21824Y279427D01*
X22070Y279448D01*
X22316Y279475D01*
X22561Y279508D01*
X22806Y279547D01*
X23049Y279592D01*
X23291Y279643D01*
X23532Y279700D01*
X23771Y279762D01*
X24009Y279831D01*
X24245Y279905D01*
X24479Y279985D01*
X24711Y280070D01*
X24941Y280162D01*
X25169Y280258D01*
X25394Y280361D01*
X25617Y280468D01*
X25837Y280582D01*
X26054Y280700D01*
X26269Y280824D01*
X26480Y280953D01*
X26688Y281087D01*
X26893Y281226D01*
X27094Y281370D01*
X27292Y281518D01*
X27486Y281672D01*
X27676Y281830D01*
X27862Y281993D01*
X28044Y282160D01*
X28222Y282332D01*
X28396Y282508D01*
X28566Y282688D01*
X28731Y282873D01*
X28891Y283061D01*
X29047Y283253D01*
X29199Y283449D01*
X29345Y283648D01*
X29487Y283851D01*
X29623Y284058D01*
X29755Y284267D01*
X29881Y284480D01*
X30002Y284696D01*
X30118Y284914D01*
X30228Y285136D01*
X30333Y285360D01*
X30433Y285586D01*
X30527Y285815D01*
X30615Y286046D01*
X30698Y286280D01*
X30775Y286515D01*
X30846Y286752D01*
X30912Y286990D01*
X30971Y287230D01*
X31025Y287472D01*
X31073Y287715D01*
X31115Y287958D01*
X31151Y288203D01*
X31181Y288449D01*
X31205Y288695D01*
X31223Y288942D01*
X31235Y289189D01*
X31241Y289436D01*
X31241Y289684D01*
X31235Y289931D01*
X31223Y290178D01*
X31205Y290425D01*
X31181Y290671D01*
X31151Y290917D01*
X31115Y291162D01*
X31073Y291405D01*
X31025Y291648D01*
X30971Y291890D01*
X30912Y292130D01*
X30846Y292368D01*
X30775Y292605D01*
X30698Y292840D01*
X30615Y293074D01*
X30527Y293305D01*
X30433Y293534D01*
X30333Y293760D01*
X30228Y293984D01*
X30118Y294206D01*
X30002Y294424D01*
X29881Y294640D01*
X29755Y294853D01*
X29623Y295062D01*
X29487Y295269D01*
X29345Y295472D01*
X29199Y295671D01*
X29047Y295867D01*
X28891Y296059D01*
X28731Y296247D01*
X28566Y296432D01*
X28396Y296612D01*
X28222Y296788D01*
X28044Y296960D01*
X27862Y297127D01*
X27676Y297290D01*
X27486Y297448D01*
X27292Y297602D01*
X27094Y297750D01*
X26893Y297894D01*
X26688Y298033D01*
X26480Y298167D01*
X26269Y298296D01*
X26054Y298420D01*
X25837Y298538D01*
X25617Y298652D01*
X25394Y298759D01*
X25169Y298862D01*
X24941Y298958D01*
X24711Y299050D01*
X24479Y299135D01*
X24245Y299215D01*
X24009Y299289D01*
X23771Y299358D01*
X23532Y299420D01*
X23291Y299477D01*
X23049Y299528D01*
X22806Y299573D01*
X22561Y299612D01*
X22316Y299645D01*
X22070Y299672D01*
X21824Y299693D01*
X21577Y299708D01*
X21329Y299717D01*
X21082Y299720D01*
X10922Y299720D02*
X10675Y299717D01*
X10427Y299708D01*
X10180Y299693D01*
X9934Y299672D01*
X9688Y299645D01*
X9443Y299612D01*
X9198Y299573D01*
X8955Y299528D01*
X8713Y299477D01*
X8472Y299420D01*
X8233Y299358D01*
X7995Y299289D01*
X7759Y299215D01*
X7525Y299135D01*
X7293Y299050D01*
X7063Y298958D01*
X6835Y298862D01*
X6610Y298759D01*
X6387Y298652D01*
X6167Y298538D01*
X5950Y298420D01*
X5735Y298296D01*
X5524Y298167D01*
X5316Y298033D01*
X5111Y297894D01*
X4910Y297750D01*
X4712Y297602D01*
X4518Y297448D01*
X4328Y297290D01*
X4142Y297127D01*
X3960Y296960D01*
X3782Y296788D01*
X3608Y296612D01*
X3438Y296432D01*
X3273Y296247D01*
X3113Y296059D01*
X2957Y295867D01*
X2805Y295671D01*
X2659Y295472D01*
X2517Y295269D01*
X2381Y295062D01*
X2249Y294853D01*
X2123Y294640D01*
X2002Y294424D01*
X1886Y294206D01*
X1776Y293984D01*
X1671Y293760D01*
X1571Y293534D01*
X1477Y293305D01*
X1389Y293074D01*
X1306Y292840D01*
X1229Y292605D01*
X1158Y292368D01*
X1092Y292130D01*
X1033Y291890D01*
X979Y291648D01*
X931Y291405D01*
X889Y291162D01*
X853Y290917D01*
X823Y290671D01*
X799Y290425D01*
X781Y290178D01*
X769Y289931D01*
X763Y289684D01*
X763Y289436D01*
X769Y289189D01*
X781Y288942D01*
X799Y288695D01*
X823Y288449D01*
X853Y288203D01*
X889Y287958D01*
X931Y287715D01*
X979Y287472D01*
X1033Y287230D01*
X1092Y286990D01*
X1158Y286752D01*
X1229Y286515D01*
X1306Y286280D01*
X1389Y286046D01*
X1477Y285815D01*
X1571Y285586D01*
X1671Y285360D01*
X1776Y285136D01*
X1886Y284914D01*
X2002Y284696D01*
X2123Y284480D01*
X2249Y284267D01*
X2381Y284058D01*
X2517Y283851D01*
X2659Y283648D01*
X2805Y283449D01*
X2957Y283253D01*
X3113Y283061D01*
X3273Y282873D01*
X3438Y282688D01*
X3608Y282508D01*
X3782Y282332D01*
X3960Y282160D01*
X4142Y281993D01*
X4328Y281830D01*
X4518Y281672D01*
X4712Y281518D01*
X4910Y281370D01*
X5111Y281226D01*
X5316Y281087D01*
X5524Y280953D01*
X5735Y280824D01*
X5950Y280700D01*
X6167Y280582D01*
X6387Y280468D01*
X6610Y280361D01*
X6835Y280258D01*
X7063Y280162D01*
X7293Y280070D01*
X7525Y279985D01*
X7759Y279905D01*
X7995Y279831D01*
X8233Y279762D01*
X8472Y279700D01*
X8713Y279643D01*
X8955Y279592D01*
X9198Y279547D01*
X9443Y279508D01*
X9688Y279475D01*
X9934Y279448D01*
X10180Y279427D01*
X10427Y279412D01*
X10675Y279403D01*
X10922Y279400D01*
D13*
X33782Y289560D03*
X-1778Y289560D03*
X16002Y302260D03*
X16002Y276860D03*
D14*
X-5969Y156088D02*
X-5969Y150749D01*
X-5969Y153418D02*
X-21985Y153418D01*
X-21985Y150749D02*
X-21985Y156088D01*
X-21985Y169671D02*
X-19315Y172341D01*
X-21985Y169671D02*
X-21985Y164333D01*
X-19315Y161663D01*
X-8638Y161663D01*
X-5969Y164333D01*
X-5969Y169671D01*
X-8638Y172341D01*
X-16646Y178035D02*
X-21985Y183374D01*
X-5969Y183374D01*
X-5969Y188712D02*
X-5969Y178035D01*
X87249Y262001D02*
X97926Y262001D01*
X87249Y262001D02*
X97926Y272678D01*
X97926Y275347D01*
X95257Y278017D01*
X89918Y278017D01*
X87249Y275347D01*
X103621Y278017D02*
X114298Y278017D01*
X103621Y278017D02*
X103621Y270009D01*
X108959Y272678D01*
X111628Y272678D01*
X114298Y270009D01*
X114298Y264670D01*
X111628Y262001D01*
X106290Y262001D01*
X103621Y264670D01*
X119992Y275347D02*
X122661Y278017D01*
X128000Y278017D01*
X130669Y275347D01*
X130669Y272678D01*
X128000Y270009D01*
X125331Y270009D01*
X128000Y270009D02*
X130669Y267340D01*
X130669Y264670D01*
X128000Y262001D01*
X122661Y262001D01*
X119992Y264670D01*
X136364Y262001D02*
X147041Y262001D01*
X136364Y262001D02*
X147041Y272678D01*
X147041Y275347D01*
X144372Y278017D01*
X139033Y278017D01*
X136364Y275347D01*
D12*
X52324Y279400D02*
X52571Y279403D01*
X52819Y279412D01*
X53066Y279427D01*
X53312Y279448D01*
X53558Y279475D01*
X53803Y279508D01*
X54048Y279547D01*
X54291Y279592D01*
X54533Y279643D01*
X54774Y279700D01*
X55013Y279762D01*
X55251Y279831D01*
X55487Y279905D01*
X55721Y279985D01*
X55953Y280070D01*
X56183Y280162D01*
X56411Y280258D01*
X56636Y280361D01*
X56859Y280468D01*
X57079Y280582D01*
X57296Y280700D01*
X57511Y280824D01*
X57722Y280953D01*
X57930Y281087D01*
X58135Y281226D01*
X58336Y281370D01*
X58534Y281518D01*
X58728Y281672D01*
X58918Y281830D01*
X59104Y281993D01*
X59286Y282160D01*
X59464Y282332D01*
X59638Y282508D01*
X59808Y282688D01*
X59973Y282873D01*
X60133Y283061D01*
X60289Y283253D01*
X60441Y283449D01*
X60587Y283648D01*
X60729Y283851D01*
X60865Y284058D01*
X60997Y284267D01*
X61123Y284480D01*
X61244Y284696D01*
X61360Y284914D01*
X61470Y285136D01*
X61575Y285360D01*
X61675Y285586D01*
X61769Y285815D01*
X61857Y286046D01*
X61940Y286280D01*
X62017Y286515D01*
X62088Y286752D01*
X62154Y286990D01*
X62213Y287230D01*
X62267Y287472D01*
X62315Y287715D01*
X62357Y287958D01*
X62393Y288203D01*
X62423Y288449D01*
X62447Y288695D01*
X62465Y288942D01*
X62477Y289189D01*
X62483Y289436D01*
X62483Y289684D01*
X62477Y289931D01*
X62465Y290178D01*
X62447Y290425D01*
X62423Y290671D01*
X62393Y290917D01*
X62357Y291162D01*
X62315Y291405D01*
X62267Y291648D01*
X62213Y291890D01*
X62154Y292130D01*
X62088Y292368D01*
X62017Y292605D01*
X61940Y292840D01*
X61857Y293074D01*
X61769Y293305D01*
X61675Y293534D01*
X61575Y293760D01*
X61470Y293984D01*
X61360Y294206D01*
X61244Y294424D01*
X61123Y294640D01*
X60997Y294853D01*
X60865Y295062D01*
X60729Y295269D01*
X60587Y295472D01*
X60441Y295671D01*
X60289Y295867D01*
X60133Y296059D01*
X59973Y296247D01*
X59808Y296432D01*
X59638Y296612D01*
X59464Y296788D01*
X59286Y296960D01*
X59104Y297127D01*
X58918Y297290D01*
X58728Y297448D01*
X58534Y297602D01*
X58336Y297750D01*
X58135Y297894D01*
X57930Y298033D01*
X57722Y298167D01*
X57511Y298296D01*
X57296Y298420D01*
X57079Y298538D01*
X56859Y298652D01*
X56636Y298759D01*
X56411Y298862D01*
X56183Y298958D01*
X55953Y299050D01*
X55721Y299135D01*
X55487Y299215D01*
X55251Y299289D01*
X55013Y299358D01*
X54774Y299420D01*
X54533Y299477D01*
X54291Y299528D01*
X54048Y299573D01*
X53803Y299612D01*
X53558Y299645D01*
X53312Y299672D01*
X53066Y299693D01*
X52819Y299708D01*
X52571Y299717D01*
X52324Y299720D01*
X42164Y299720D02*
X41917Y299717D01*
X41669Y299708D01*
X41422Y299693D01*
X41176Y299672D01*
X40930Y299645D01*
X40685Y299612D01*
X40440Y299573D01*
X40197Y299528D01*
X39955Y299477D01*
X39714Y299420D01*
X39475Y299358D01*
X39237Y299289D01*
X39001Y299215D01*
X38767Y299135D01*
X38535Y299050D01*
X38305Y298958D01*
X38077Y298862D01*
X37852Y298759D01*
X37629Y298652D01*
X37409Y298538D01*
X37192Y298420D01*
X36977Y298296D01*
X36766Y298167D01*
X36558Y298033D01*
X36353Y297894D01*
X36152Y297750D01*
X35954Y297602D01*
X35760Y297448D01*
X35570Y297290D01*
X35384Y297127D01*
X35202Y296960D01*
X35024Y296788D01*
X34850Y296612D01*
X34680Y296432D01*
X34515Y296247D01*
X34355Y296059D01*
X34199Y295867D01*
X34047Y295671D01*
X33901Y295472D01*
X33759Y295269D01*
X33623Y295062D01*
X33491Y294853D01*
X33365Y294640D01*
X33244Y294424D01*
X33128Y294206D01*
X33018Y293984D01*
X32913Y293760D01*
X32813Y293534D01*
X32719Y293305D01*
X32631Y293074D01*
X32548Y292840D01*
X32471Y292605D01*
X32400Y292368D01*
X32334Y292130D01*
X32275Y291890D01*
X32221Y291648D01*
X32173Y291405D01*
X32131Y291162D01*
X32095Y290917D01*
X32065Y290671D01*
X32041Y290425D01*
X32023Y290178D01*
X32011Y289931D01*
X32005Y289684D01*
X32005Y289436D01*
X32011Y289189D01*
X32023Y288942D01*
X32041Y288695D01*
X32065Y288449D01*
X32095Y288203D01*
X32131Y287958D01*
X32173Y287715D01*
X32221Y287472D01*
X32275Y287230D01*
X32334Y286990D01*
X32400Y286752D01*
X32471Y286515D01*
X32548Y286280D01*
X32631Y286046D01*
X32719Y285815D01*
X32813Y285586D01*
X32913Y285360D01*
X33018Y285136D01*
X33128Y284914D01*
X33244Y284696D01*
X33365Y284480D01*
X33491Y284267D01*
X33623Y284058D01*
X33759Y283851D01*
X33901Y283648D01*
X34047Y283449D01*
X34199Y283253D01*
X34355Y283061D01*
X34515Y282873D01*
X34680Y282688D01*
X34850Y282508D01*
X35024Y282332D01*
X35202Y282160D01*
X35384Y281993D01*
X35570Y281830D01*
X35760Y281672D01*
X35954Y281518D01*
X36152Y281370D01*
X36353Y281226D01*
X36558Y281087D01*
X36766Y280953D01*
X36977Y280824D01*
X37192Y280700D01*
X37409Y280582D01*
X37629Y280468D01*
X37852Y280361D01*
X38077Y280258D01*
X38305Y280162D01*
X38535Y280070D01*
X38767Y279985D01*
X39001Y279905D01*
X39237Y279831D01*
X39475Y279762D01*
X39714Y279700D01*
X39955Y279643D01*
X40197Y279592D01*
X40440Y279547D01*
X40685Y279508D01*
X40930Y279475D01*
X41176Y279448D01*
X41422Y279427D01*
X41669Y279412D01*
X41917Y279403D01*
X42164Y279400D01*
D13*
X65024Y289560D03*
X29464Y289560D03*
X47244Y302260D03*
X47244Y276860D03*
D14*
X234823Y156088D02*
X234823Y150749D01*
X234823Y153418D02*
X218807Y153418D01*
X218807Y150749D02*
X218807Y156088D01*
X218807Y169671D02*
X221477Y172341D01*
X218807Y169671D02*
X218807Y164333D01*
X221477Y161663D01*
X232154Y161663D01*
X234823Y164333D01*
X234823Y169671D01*
X232154Y172341D01*
X234823Y178035D02*
X234823Y188712D01*
X234823Y178035D02*
X224146Y188712D01*
X221477Y188712D01*
X218807Y186043D01*
X218807Y180704D01*
X221477Y178035D01*
X85226Y31623D02*
X74549Y31623D01*
X85226Y42300D01*
X85226Y44969D01*
X82557Y47639D01*
X77218Y47639D01*
X74549Y44969D01*
X90921Y47639D02*
X101598Y47639D01*
X101598Y44969D01*
X90921Y34292D01*
X90921Y31623D01*
X107292Y44969D02*
X109961Y47639D01*
X115300Y47639D01*
X117969Y44969D01*
X117969Y42300D01*
X115300Y39631D01*
X112631Y39631D01*
X115300Y39631D02*
X117969Y36962D01*
X117969Y34292D01*
X115300Y31623D01*
X109961Y31623D01*
X107292Y34292D01*
X123664Y31623D02*
X134341Y31623D01*
X123664Y31623D02*
X134341Y42300D01*
X134341Y44969D01*
X131672Y47639D01*
X126333Y47639D01*
X123664Y44969D01*
D12*
X132080Y330200D02*
X134620Y332740D01*
X132080Y330200D02*
X129540Y332740D01*
X132080Y309880D02*
X134620Y307340D01*
X132080Y309880D02*
X129540Y307340D01*
X109220Y307340D01*
X106680Y309880D01*
X154940Y307340D02*
X157480Y309880D01*
X154940Y307340D02*
X134620Y307340D01*
X157480Y309880D02*
X157480Y330200D01*
X154940Y332740D01*
X134620Y332740D01*
X129540Y332740D02*
X109220Y332740D01*
X106680Y330200D01*
X106680Y309880D01*
D15*
X159385Y316232D02*
X161292Y314325D01*
X163198Y314325D01*
X165105Y316232D01*
X165105Y325765D01*
X163198Y325765D02*
X167012Y325765D01*
X171079Y325765D02*
X171079Y314325D01*
X171079Y325765D02*
X176799Y325765D01*
X178705Y323858D01*
X178705Y320045D01*
X176799Y318138D01*
X171079Y318138D01*
X182773Y321952D02*
X186586Y325765D01*
X186586Y314325D01*
X182773Y314325D02*
X190399Y314325D01*
D12*
X83566Y332486D02*
X81026Y329946D01*
X78486Y332486D01*
X81026Y309626D02*
X83566Y307086D01*
X81026Y309626D02*
X78486Y307086D01*
X58166Y307086D01*
X55626Y309626D01*
X103886Y307086D02*
X106426Y309626D01*
X103886Y307086D02*
X83566Y307086D01*
X106426Y309626D02*
X106426Y329946D01*
X103886Y332486D01*
X83566Y332486D01*
X78486Y332486D02*
X58166Y332486D01*
X55626Y329946D01*
X55626Y309626D01*
D15*
X24640Y314071D02*
X22733Y315978D01*
X24640Y314071D02*
X26546Y314071D01*
X28453Y315978D01*
X28453Y325511D01*
X26546Y325511D02*
X30360Y325511D01*
X34427Y325511D02*
X34427Y314071D01*
X34427Y325511D02*
X40147Y325511D01*
X42053Y323604D01*
X42053Y319791D01*
X40147Y317884D01*
X34427Y317884D01*
X46121Y314071D02*
X53747Y314071D01*
X46121Y314071D02*
X53747Y321698D01*
X53747Y323604D01*
X51841Y325511D01*
X48028Y325511D01*
X46121Y323604D01*
D12*
X83820Y304800D02*
X83820Y279400D01*
X71120Y292100D02*
X83820Y304800D01*
X71120Y292100D02*
X83820Y279400D01*
D16*
X90805Y292100D03*
D17*
X81915Y292100D03*
D18*
X78740Y292100D03*
D19*
X76200Y292100D03*
D20*
X73660Y292100D03*
D21*
X83185Y281940D03*
D22*
X81915Y282575D03*
X79375Y285115D03*
X76835Y287655D03*
X74295Y290195D03*
X74295Y294005D03*
X76835Y296545D03*
X79375Y299085D03*
D21*
X83185Y302260D03*
D22*
X81915Y301625D03*
D12*
X83820Y261620D02*
X83820Y236220D01*
X71120Y248920D02*
X83820Y261620D01*
X71120Y248920D02*
X83820Y236220D01*
D16*
X90805Y248920D03*
D17*
X81915Y248920D03*
D18*
X78740Y248920D03*
D19*
X76200Y248920D03*
D20*
X73660Y248920D03*
D21*
X83185Y238760D03*
D22*
X81915Y239395D03*
X79375Y241935D03*
X76835Y244475D03*
X74295Y247015D03*
X74295Y250825D03*
X76835Y253365D03*
X79375Y255905D03*
D21*
X83185Y259080D03*
D22*
X81915Y258445D03*
D12*
X137160Y30480D02*
X137160Y5080D01*
X149860Y17780D01*
X137160Y30480D01*
D16*
X130175Y17780D03*
D17*
X139065Y17780D03*
D18*
X142240Y17780D03*
D19*
X144780Y17780D03*
D20*
X147320Y17780D03*
D21*
X137795Y27940D03*
D22*
X139065Y27305D03*
X141605Y24765D03*
X144145Y22225D03*
X146685Y19685D03*
X146685Y15875D03*
X144145Y13335D03*
X141605Y10795D03*
D21*
X137795Y7620D03*
D22*
X139065Y8255D03*
D12*
X134620Y50800D02*
X134620Y76200D01*
X147320Y63500D02*
X134620Y50800D01*
X147320Y63500D02*
X134620Y76200D01*
D16*
X127635Y63500D03*
D17*
X136525Y63500D03*
D18*
X139700Y63500D03*
D19*
X142240Y63500D03*
D20*
X144780Y63500D03*
D21*
X135255Y73660D03*
D22*
X136525Y73025D03*
X139065Y70485D03*
X141605Y67945D03*
X144145Y65405D03*
X144145Y61595D03*
X141605Y59055D03*
X139065Y56515D03*
D21*
X135255Y53340D03*
D22*
X136525Y53975D03*
M02*
